<?xml version="1.0" standalone="no"?>
<!DOCTYPE svg PUBLIC "-//W3C//DTD SVG 20010904//EN"
 "http://www.w3.org/TR/2001/REC-SVG-20010904/DTD/svg10.dtd">
<svg version="1.0" xmlns="http://www.w3.org/2000/svg"
 width="16.000000pt" height="16.000000pt" viewBox="0 0 16.000000 16.000000"
 preserveAspectRatio="xMidYMid meet">
<metadata>
Created by potrace 1.11, written by Peter Selinger 2001-2013
</metadata>
<g transform="translate(0.000000,16.000000) scale(0.006780,-0.006780)"
fill="#000000" stroke="none">
<path d="M890 2319 c-14 -4 -74 -18 -135 -31 -77 -17 -109 -28 -107 -37 2 -9
-3 -11 -13 -8 -8 4 -15 3 -15 -1 0 -12 -96 -62 -119 -62 -12 0 -20 -3 -20 -7
4 -23 -3 -33 -22 -33 -13 0 -18 4 -14 13 4 6 -28 -24 -69 -68 -84 -88 -146
-171 -146 -196 0 -9 -11 -29 -25 -45 -14 -16 -30 -43 -36 -61 -5 -18 -19 -35
-31 -39 -18 -5 -20 -12 -15 -50 2 -24 1 -44 -3 -44 -3 0 -6 -10 -6 -22 1 -17
-4 -22 -17 -20 -20 3 -37 -33 -37 -80 0 -18 -8 -36 -18 -44 -16 -12 -16 -13 0
-14 9 0 20 9 23 20 4 11 11 18 16 14 14 -8 1 -45 -27 -74 -27 -29 -46 -109
-32 -134 7 -12 5 -16 -4 -14 -7 2 -11 -4 -9 -12 7 -27 5 -164 -3 -195 -7 -29
-7 -29 8 -10 24 31 39 1 20 -43 -17 -41 -20 -76 -4 -52 7 11 10 3 10 -29 0
-35 3 -42 16 -37 8 3 12 2 9 -4 -3 -6 1 -13 10 -16 9 -4 14 -13 11 -21 -3 -8
5 -24 18 -36 20 -18 21 -24 10 -35 -11 -10 -10 -18 7 -46 11 -19 28 -36 39
-39 12 -3 18 -13 17 -27 -1 -20 -2 -20 -14 -4 -7 10 -15 15 -19 12 -10 -10 14
-45 46 -68 17 -12 28 -26 25 -31 -4 -5 -1 -9 4 -9 6 0 11 -5 11 -11 0 -6 -7
-8 -17 -5 -14 6 -14 3 3 -16 12 -13 24 -34 28 -48 3 -14 25 -38 48 -53 32 -23
38 -31 27 -39 -11 -8 -10 -9 4 -4 11 3 24 -2 35 -15 26 -33 66 -69 75 -69 4 0
12 -12 18 -27 9 -25 11 -26 20 -10 8 13 14 15 29 7 11 -6 17 -16 14 -25 -5
-11 3 -17 25 -21 17 -4 34 -11 37 -15 3 -5 10 -6 16 -3 7 4 7 0 0 -13 -10 -17
-6 -22 24 -36 19 -10 46 -17 59 -17 13 0 26 -4 30 -9 3 -5 21 -7 40 -4 26 4
41 1 56 -13 12 -11 23 -18 25 -16 2 1 5 2 7 1 22 -7 51 -10 92 -11 28 0 40 -2
28 -5 -36 -7 -27 -23 13 -23 21 0 33 -4 29 -10 -6 -10 55 -43 64 -35 2 2 -10
16 -25 31 -28 25 -28 26 -5 19 32 -10 52 -13 79 -14 13 -1 20 -5 17 -11 -8
-14 11 -13 35 2 15 10 22 9 38 -5 23 -21 33 -22 26 -2 -5 11 1 15 24 15 16 0
48 7 71 15 23 8 39 10 36 5 -10 -16 29 3 45 22 11 13 31 18 77 19 54 2 66 6
90 30 16 16 36 29 45 29 10 0 15 6 12 13 -2 7 2 21 10 32 15 20 15 20 16 -2 0
-17 5 -21 23 -19 52 6 95 34 113 73 10 21 27 53 37 71 17 29 21 31 31 16 10
-13 7 -21 -16 -46 -16 -17 -26 -34 -22 -37 3 -3 16 6 29 22 13 15 31 27 41 27
10 0 14 5 11 14 -3 8 6 27 20 43 16 18 23 22 19 10 -3 -11 -2 -16 4 -12 6 3
10 14 10 25 0 10 22 37 49 59 28 23 60 63 74 91 17 33 28 45 35 38 6 -6 5 13
-3 51 -14 69 -4 80 37 39 l23 -23 -27 -5 c-23 -4 -25 -7 -14 -23 12 -16 16
-14 39 22 26 40 26 40 5 47 -19 6 -19 7 12 27 27 17 29 22 16 29 -23 13 -21
31 3 19 16 -9 17 -7 13 14 -3 20 0 25 16 25 27 0 40 59 23 105 -16 46 -14 58
9 52 29 -7 35 10 13 40 -44 63 -53 80 -53 107 0 28 1 28 19 12 10 -9 29 -39
42 -66 22 -46 24 -48 41 -33 10 9 18 12 19 7 0 -5 4 3 9 18 5 17 4 43 -3 65
l-12 38 -5 -45 c-5 -43 -6 -44 -18 -22 -17 29 -25 70 -17 83 4 5 13 5 26 -1
21 -12 20 -14 23 75 1 22 5 47 10 57 7 14 1 16 -53 11 -34 -3 -61 -3 -61 0 0
4 7 25 16 47 13 31 21 40 33 34 43 -18 49 -16 45 11 -1 15 -7 32 -13 38 -6 6
-11 20 -11 32 0 12 -12 27 -30 37 -22 12 -30 25 -30 44 0 14 -7 53 -16 87 -8
33 -13 70 -11 81 4 15 -4 28 -24 44 -21 17 -29 20 -29 9 0 -16 34 -49 43 -42
4 3 3 0 -2 -6 -21 -26 -126 36 -114 67 3 10 -9 20 -41 34 -54 24 -73 51 -50
71 13 10 19 8 39 -13 13 -14 22 -28 19 -30 -2 -3 3 -5 10 -5 11 0 12 5 6 16
-14 28 -128 141 -140 141 -9 0 -10 -3 -1 -13 9 -11 5 -13 -17 -12 -45 3 -72
15 -72 34 0 18 -18 41 -33 41 -5 0 -7 -7 -3 -15 6 -18 -1 -19 -43 -4 -44 15
-50 4 -9 -16 18 -9 49 -33 68 -54 28 -29 35 -33 38 -19 3 15 7 16 25 7 35 -18
56 -45 47 -59 -10 -17 -5 -24 104 -130 39 -37 56 -62 56 -80 0 -17 3 -21 9
-12 6 10 10 9 14 -7 3 -12 1 -19 -4 -15 -17 10 -9 -12 11 -29 14 -12 20 -31
22 -64 3 -94 4 -108 12 -150 4 -24 12 -45 17 -49 5 -3 9 -17 9 -32 0 -15 7
-37 15 -49 14 -20 13 -27 -5 -75 -11 -29 -20 -76 -20 -104 0 -28 -3 -54 -7
-58 -4 -3 -8 -12 -9 -19 -8 -36 -22 -70 -23 -53 -1 15 -4 16 -16 6 -11 -9 -12
-15 -2 -25 7 -7 15 -11 20 -8 10 6 9 -2 -5 -32 -6 -14 -14 -25 -18 -25 -5 0
-8 -6 -7 -12 2 -53 -6 -91 -21 -106 -9 -9 -16 -25 -14 -35 3 -12 -4 -20 -17
-24 -12 -3 -21 -12 -21 -19 0 -28 -38 -81 -107 -149 -87 -86 -151 -140 -167
-140 -6 0 -26 -11 -44 -24 -18 -13 -36 -20 -39 -17 -11 11 -33 -16 -33 -43 -1
-16 -10 -33 -27 -45 -23 -17 -26 -17 -20 -3 6 15 1 14 -36 -4 -23 -12 -44 -25
-47 -29 -3 -5 -24 -13 -47 -19 -23 -6 -43 -15 -45 -20 -2 -5 -32 -11 -66 -14
-35 -2 -67 -9 -70 -14 -4 -6 -29 -10 -56 -8 -39 2 -55 9 -82 36 -26 25 -34 29
-34 16 0 -9 -4 -17 -10 -17 -5 0 -10 7 -10 16 0 13 -7 14 -42 8 -24 -4 -51 -7
-60 -6 -10 0 -20 -3 -23 -9 -4 -5 -24 0 -46 12 -23 11 -64 22 -92 25 -27 2
-57 10 -66 18 -9 8 -35 19 -58 25 -24 7 -43 17 -43 24 -1 12 -89 77 -106 77
-5 0 -16 10 -24 21 -8 12 -31 29 -50 38 -20 9 -36 20 -37 24 0 5 -24 43 -54
85 -30 43 -63 100 -75 127 -11 28 -30 55 -41 60 -11 6 -28 17 -37 24 -9 8 -16
9 -16 3 0 -14 -33 -8 -38 6 -2 7 4 12 13 12 14 0 16 6 10 28 -4 15 -8 38 -10
52 -2 14 -10 52 -18 85 -18 70 -26 131 -26 197 -1 40 -4 46 -18 41 -13 -5 -15
-2 -10 11 4 10 7 20 7 22 0 3 5 2 11 -2 8 -5 8 -1 0 14 -16 30 -14 37 6 21 17
-13 17 -12 0 14 -16 25 -16 30 -2 57 18 34 20 64 4 54 -8 -5 -10 2 -7 22 7 38
56 201 74 242 8 18 9 32 4 32 -6 0 -10 5 -10 10 0 6 7 10 15 10 20 0 71 52 81
82 4 12 43 59 88 103 44 44 79 86 78 93 -2 7 7 12 23 12 15 0 25 6 25 14 0 20
48 54 147 105 103 52 163 71 230 71 31 0 57 6 65 14 9 9 20 11 35 5 13 -5 28
-7 35 -5 7 3 25 7 41 10 26 6 27 7 13 34 -17 33 -41 55 -65 60 -38 8 -118 9
-141 1z m-831 -1083 c1 -20 1 -20 -15 0 -8 10 -13 13 -9 7 3 -7 1 -13 -4 -13
-15 0 -14 28 2 44 10 12 13 11 19 -3 4 -9 7 -25 7 -35z m-19 -26 c0 -5 -2 -10
-4 -10 -3 0 -8 5 -11 10 -3 6 -1 10 4 10 6 0 11 -4 11 -10z m1640 -948 c0 -12
-3 -13 -11 -5 -6 6 -19 9 -28 5 -14 -5 -14 -3 -3 11 16 19 42 12 42 -11z"/>
<path d="M1330 2292 c0 -4 12 -15 26 -26 26 -18 26 -18 15 2 -10 19 -41 38
-41 24z"/>
<path d="M1300 2264 c0 -8 5 -12 10 -9 6 4 8 11 5 16 -9 14 -15 11 -15 -7z"/>
<path d="M1150 2250 c-9 -6 -10 -10 -3 -10 6 0 15 5 18 10 8 12 4 12 -15 0z"/>
<path d="M1345 2230 c-3 -6 1 -7 9 -4 18 7 21 14 7 14 -6 0 -13 -4 -16 -10z"/>
<path d="M1480 2230 c20 -13 33 -13 25 0 -3 6 -14 10 -23 10 -15 0 -15 -2 -2
-10z"/>
<path d="M1120 2214 c0 -14 3 -14 15 -4 8 7 15 14 15 16 0 2 -7 4 -15 4 -8 0
-15 -7 -15 -16z"/>
<path d="M1185 2210 c4 -6 11 -8 16 -5 14 9 11 15 -7 15 -8 0 -12 -5 -9 -10z"/>
<path d="M1310 2210 c0 -5 5 -10 10 -10 6 0 10 5 10 10 0 6 -4 10 -10 10 -5 0
-10 -4 -10 -10z"/>
<path d="M1390 2199 c0 -5 5 -7 10 -4 6 3 10 8 10 11 0 2 -4 4 -10 4 -5 0 -10
-5 -10 -11z"/>
<path d="M1490 2180 c0 -4 9 -10 20 -13 11 -3 20 -2 20 3 0 4 -9 10 -20 13
-11 3 -20 2 -20 -3z"/>
<path d="M1556 2173 c-4 -9 -1 -20 6 -25 15 -9 34 -11 25 -2 -3 4 -2 15 4 25
8 16 6 19 -10 19 -10 0 -22 -8 -25 -17z"/>
<path d="M1656 2165 c-4 -14 -4 -30 -1 -35 8 -13 -2 -13 -25 0 -16 9 -18 8
-14 -5 4 -9 15 -20 25 -25 23 -13 38 -13 19 0 -12 8 -11 11 8 16 18 5 20 9 11
20 -16 19 -5 29 12 12 13 -15 69 -12 69 3 0 5 -14 12 -30 16 -17 3 -33 10 -36
14 -11 18 -32 8 -38 -16z"/>
<path d="M1470 2147 c0 -7 9 -13 20 -14 11 -1 20 0 20 2 0 2 -9 9 -20 15 -15
8 -20 8 -20 -3z"/>
<path d="M1766 2091 c-3 -5 1 -11 9 -15 8 -3 15 -1 15 4 0 13 -18 22 -24 11z"/>
<path d="M1104 2046 c-17 -8 -44 -30 -59 -51 -52 -67 -31 -174 42 -217 137
-80 289 68 210 206 -38 67 -120 93 -193 62z"/>
<path d="M1882 2044 c10 -10 20 -15 24 -12 3 4 -5 12 -18 18 -22 12 -22 12 -6
-6z"/>
<path d="M1888 1938 c5 -5 16 -8 23 -6 8 3 3 7 -10 11 -17 4 -21 3 -13 -5z"/>
<path d="M2095 1900 c-3 -5 -1 -10 4 -10 6 0 11 5 11 10 0 6 -2 10 -4 10 -3 0
-8 -4 -11 -10z"/>
<path d="M2160 1841 c0 -5 7 -12 16 -15 14 -5 15 -4 4 9 -14 17 -20 19 -20 6z"/>
<path d="M562 1804 c-142 -71 -92 -284 67 -284 86 0 151 64 151 150 0 78 -50
135 -131 150 -32 6 -50 3 -87 -16z"/>
<path d="M1665 1820 c-128 -27 -163 -196 -57 -274 63 -47 176 -24 216 43 68
117 -29 259 -159 231z"/>
<path d="M1303 1678 c-14 -15 -43 -98 -83 -238 -111 -388 -92 -344 -147 -358
-113 -31 -182 -121 -183 -240 0 -79 27 -139 86 -191 168 -148 434 -8 411 216
-6 58 -42 130 -80 160 l-24 18 78 275 c43 151 78 288 79 303 1 66 -93 103
-137 55z"/>
<path d="M1830 1313 c-64 -26 -102 -81 -102 -147 0 -121 138 -193 238 -124 83
57 84 191 3 249 -29 20 -112 34 -139 22z"/>
<path d="M363 1289 c-77 -38 -106 -123 -68 -203 66 -139 285 -88 285 66 0 119
-112 190 -217 137z"/>
<path d="M2293 968 c-12 -17 -11 -37 2 -40 6 -2 10 9 10 25 1 31 1 31 -12 15z"/>
<path d="M480 240 c0 -5 5 -10 11 -10 5 0 7 5 4 10 -3 6 -8 10 -11 10 -2 0 -4
-4 -4 -10z"/>
<path d="M545 200 c-3 -5 1 -10 10 -10 9 0 13 5 10 10 -3 6 -8 10 -10 10 -2 0
-7 -4 -10 -10z"/>
<path d="M1095 40 c3 -5 8 -10 11 -10 2 0 4 5 4 10 0 6 -5 10 -11 10 -5 0 -7
-4 -4 -10z"/>
</g>
</svg>
